<svg xmlns="http://www.w3.org/2000/svg" viewBox="0 0 290 290" width="290" height="290">
  <rect width="290" height="290" fill="white"/>
  <rect x="40" y="40" width="10" height="10" fill="black"/>
  <rect x="50" y="40" width="10" height="10" fill="black"/>
  <rect x="60" y="40" width="10" height="10" fill="black"/>
  <rect x="70" y="40" width="10" height="10" fill="black"/>
  <rect x="80" y="40" width="10" height="10" fill="black"/>
  <rect x="90" y="40" width="10" height="10" fill="black"/>
  <rect x="100" y="40" width="10" height="10" fill="black"/>
  <rect x="130" y="40" width="10" height="10" fill="black"/>
  <rect x="140" y="40" width="10" height="10" fill="black"/>
  <rect x="150" y="40" width="10" height="10" fill="black"/>
  <rect x="160" y="40" width="10" height="10" fill="black"/>
  <rect x="180" y="40" width="10" height="10" fill="black"/>
  <rect x="190" y="40" width="10" height="10" fill="black"/>
  <rect x="200" y="40" width="10" height="10" fill="black"/>
  <rect x="210" y="40" width="10" height="10" fill="black"/>
  <rect x="220" y="40" width="10" height="10" fill="black"/>
  <rect x="230" y="40" width="10" height="10" fill="black"/>
  <rect x="240" y="40" width="10" height="10" fill="black"/>
  <rect x="40" y="50" width="10" height="10" fill="black"/>
  <rect x="100" y="50" width="10" height="10" fill="black"/>
  <rect x="120" y="50" width="10" height="10" fill="black"/>
  <rect x="130" y="50" width="10" height="10" fill="black"/>
  <rect x="140" y="50" width="10" height="10" fill="black"/>
  <rect x="180" y="50" width="10" height="10" fill="black"/>
  <rect x="240" y="50" width="10" height="10" fill="black"/>
  <rect x="40" y="60" width="10" height="10" fill="black"/>
  <rect x="60" y="60" width="10" height="10" fill="black"/>
  <rect x="70" y="60" width="10" height="10" fill="black"/>
  <rect x="80" y="60" width="10" height="10" fill="black"/>
  <rect x="100" y="60" width="10" height="10" fill="black"/>
  <rect x="130" y="60" width="10" height="10" fill="black"/>
  <rect x="150" y="60" width="10" height="10" fill="black"/>
  <rect x="160" y="60" width="10" height="10" fill="black"/>
  <rect x="180" y="60" width="10" height="10" fill="black"/>
  <rect x="200" y="60" width="10" height="10" fill="black"/>
  <rect x="210" y="60" width="10" height="10" fill="black"/>
  <rect x="220" y="60" width="10" height="10" fill="black"/>
  <rect x="240" y="60" width="10" height="10" fill="black"/>
  <rect x="40" y="70" width="10" height="10" fill="black"/>
  <rect x="60" y="70" width="10" height="10" fill="black"/>
  <rect x="70" y="70" width="10" height="10" fill="black"/>
  <rect x="80" y="70" width="10" height="10" fill="black"/>
  <rect x="100" y="70" width="10" height="10" fill="black"/>
  <rect x="130" y="70" width="10" height="10" fill="black"/>
  <rect x="150" y="70" width="10" height="10" fill="black"/>
  <rect x="180" y="70" width="10" height="10" fill="black"/>
  <rect x="200" y="70" width="10" height="10" fill="black"/>
  <rect x="210" y="70" width="10" height="10" fill="black"/>
  <rect x="220" y="70" width="10" height="10" fill="black"/>
  <rect x="240" y="70" width="10" height="10" fill="black"/>
  <rect x="40" y="80" width="10" height="10" fill="black"/>
  <rect x="60" y="80" width="10" height="10" fill="black"/>
  <rect x="70" y="80" width="10" height="10" fill="black"/>
  <rect x="80" y="80" width="10" height="10" fill="black"/>
  <rect x="100" y="80" width="10" height="10" fill="black"/>
  <rect x="120" y="80" width="10" height="10" fill="black"/>
  <rect x="160" y="80" width="10" height="10" fill="black"/>
  <rect x="180" y="80" width="10" height="10" fill="black"/>
  <rect x="200" y="80" width="10" height="10" fill="black"/>
  <rect x="210" y="80" width="10" height="10" fill="black"/>
  <rect x="220" y="80" width="10" height="10" fill="black"/>
  <rect x="240" y="80" width="10" height="10" fill="black"/>
  <rect x="40" y="90" width="10" height="10" fill="black"/>
  <rect x="100" y="90" width="10" height="10" fill="black"/>
  <rect x="130" y="90" width="10" height="10" fill="black"/>
  <rect x="180" y="90" width="10" height="10" fill="black"/>
  <rect x="240" y="90" width="10" height="10" fill="black"/>
  <rect x="40" y="100" width="10" height="10" fill="black"/>
  <rect x="50" y="100" width="10" height="10" fill="black"/>
  <rect x="60" y="100" width="10" height="10" fill="black"/>
  <rect x="70" y="100" width="10" height="10" fill="black"/>
  <rect x="80" y="100" width="10" height="10" fill="black"/>
  <rect x="90" y="100" width="10" height="10" fill="black"/>
  <rect x="100" y="100" width="10" height="10" fill="black"/>
  <rect x="120" y="100" width="10" height="10" fill="black"/>
  <rect x="140" y="100" width="10" height="10" fill="black"/>
  <rect x="160" y="100" width="10" height="10" fill="black"/>
  <rect x="180" y="100" width="10" height="10" fill="black"/>
  <rect x="190" y="100" width="10" height="10" fill="black"/>
  <rect x="200" y="100" width="10" height="10" fill="black"/>
  <rect x="210" y="100" width="10" height="10" fill="black"/>
  <rect x="220" y="100" width="10" height="10" fill="black"/>
  <rect x="230" y="100" width="10" height="10" fill="black"/>
  <rect x="240" y="100" width="10" height="10" fill="black"/>
  <rect x="130" y="110" width="10" height="10" fill="black"/>
  <rect x="140" y="110" width="10" height="10" fill="black"/>
  <rect x="50" y="120" width="10" height="10" fill="black"/>
  <rect x="80" y="120" width="10" height="10" fill="black"/>
  <rect x="100" y="120" width="10" height="10" fill="black"/>
  <rect x="160" y="120" width="10" height="10" fill="black"/>
  <rect x="180" y="120" width="10" height="10" fill="black"/>
  <rect x="210" y="120" width="10" height="10" fill="black"/>
  <rect x="40" y="130" width="10" height="10" fill="black"/>
  <rect x="60" y="130" width="10" height="10" fill="black"/>
  <rect x="80" y="130" width="10" height="10" fill="black"/>
  <rect x="110" y="130" width="10" height="10" fill="black"/>
  <rect x="140" y="130" width="10" height="10" fill="black"/>
  <rect x="170" y="130" width="10" height="10" fill="black"/>
  <rect x="190" y="130" width="10" height="10" fill="black"/>
  <rect x="210" y="130" width="10" height="10" fill="black"/>
  <rect x="230" y="130" width="10" height="10" fill="black"/>
  <rect x="40" y="140" width="10" height="10" fill="black"/>
  <rect x="60" y="140" width="10" height="10" fill="black"/>
  <rect x="80" y="140" width="10" height="10" fill="black"/>
  <rect x="100" y="140" width="10" height="10" fill="black"/>
  <rect x="110" y="140" width="10" height="10" fill="black"/>
  <rect x="120" y="140" width="10" height="10" fill="black"/>
  <rect x="160" y="140" width="10" height="10" fill="black"/>
  <rect x="180" y="140" width="10" height="10" fill="black"/>
  <rect x="200" y="140" width="10" height="10" fill="black"/>
  <rect x="220" y="140" width="10" height="10" fill="black"/>
  <rect x="240" y="140" width="10" height="10" fill="black"/>
  <rect x="40" y="150" width="10" height="10" fill="black"/>
  <rect x="50" y="150" width="10" height="10" fill="black"/>
  <rect x="70" y="150" width="10" height="10" fill="black"/>
  <rect x="80" y="150" width="10" height="10" fill="black"/>
  <rect x="110" y="150" width="10" height="10" fill="black"/>
  <rect x="130" y="150" width="10" height="10" fill="black"/>
  <rect x="150" y="150" width="10" height="10" fill="black"/>
  <rect x="170" y="150" width="10" height="10" fill="black"/>
  <rect x="190" y="150" width="10" height="10" fill="black"/>
  <rect x="210" y="150" width="10" height="10" fill="black"/>
  <rect x="230" y="150" width="10" height="10" fill="black"/>
  <rect x="40" y="160" width="10" height="10" fill="black"/>
  <rect x="50" y="160" width="10" height="10" fill="black"/>
  <rect x="60" y="160" width="10" height="10" fill="black"/>
  <rect x="70" y="160" width="10" height="10" fill="black"/>
  <rect x="80" y="160" width="10" height="10" fill="black"/>
  <rect x="100" y="160" width="10" height="10" fill="black"/>
  <rect x="120" y="160" width="10" height="10" fill="black"/>
  <rect x="160" y="160" width="10" height="10" fill="black"/>
  <rect x="180" y="160" width="10" height="10" fill="black"/>
  <rect x="200" y="160" width="10" height="10" fill="black"/>
  <rect x="220" y="160" width="10" height="10" fill="black"/>
  <rect x="240" y="160" width="10" height="10" fill="black"/>
  <rect x="150" y="170" width="10" height="10" fill="black"/>
  <rect x="170" y="170" width="10" height="10" fill="black"/>
  <rect x="190" y="170" width="10" height="10" fill="black"/>
  <rect x="210" y="170" width="10" height="10" fill="black"/>
  <rect x="230" y="170" width="10" height="10" fill="black"/>
  <rect x="40" y="180" width="10" height="10" fill="black"/>
  <rect x="50" y="180" width="10" height="10" fill="black"/>
  <rect x="60" y="180" width="10" height="10" fill="black"/>
  <rect x="70" y="180" width="10" height="10" fill="black"/>
  <rect x="80" y="180" width="10" height="10" fill="black"/>
  <rect x="90" y="180" width="10" height="10" fill="black"/>
  <rect x="100" y="180" width="10" height="10" fill="black"/>
  <rect x="160" y="180" width="10" height="10" fill="black"/>
  <rect x="180" y="180" width="10" height="10" fill="black"/>
  <rect x="200" y="180" width="10" height="10" fill="black"/>
  <rect x="220" y="180" width="10" height="10" fill="black"/>
  <rect x="240" y="180" width="10" height="10" fill="black"/>
  <rect x="40" y="190" width="10" height="10" fill="black"/>
  <rect x="100" y="190" width="10" height="10" fill="black"/>
  <rect x="130" y="190" width="10" height="10" fill="black"/>
  <rect x="150" y="190" width="10" height="10" fill="black"/>
  <rect x="170" y="190" width="10" height="10" fill="black"/>
  <rect x="190" y="190" width="10" height="10" fill="black"/>
  <rect x="210" y="190" width="10" height="10" fill="black"/>
  <rect x="230" y="190" width="10" height="10" fill="black"/>
  <rect x="40" y="200" width="10" height="10" fill="black"/>
  <rect x="60" y="200" width="10" height="10" fill="black"/>
  <rect x="70" y="200" width="10" height="10" fill="black"/>
  <rect x="80" y="200" width="10" height="10" fill="black"/>
  <rect x="100" y="200" width="10" height="10" fill="black"/>
  <rect x="120" y="200" width="10" height="10" fill="black"/>
  <rect x="140" y="200" width="10" height="10" fill="black"/>
  <rect x="160" y="200" width="10" height="10" fill="black"/>
  <rect x="180" y="200" width="10" height="10" fill="black"/>
  <rect x="200" y="200" width="10" height="10" fill="black"/>
  <rect x="220" y="200" width="10" height="10" fill="black"/>
  <rect x="240" y="200" width="10" height="10" fill="black"/>
  <rect x="40" y="210" width="10" height="10" fill="black"/>
  <rect x="60" y="210" width="10" height="10" fill="black"/>
  <rect x="70" y="210" width="10" height="10" fill="black"/>
  <rect x="80" y="210" width="10" height="10" fill="black"/>
  <rect x="100" y="210" width="10" height="10" fill="black"/>
  <rect x="130" y="210" width="10" height="10" fill="black"/>
  <rect x="140" y="210" width="10" height="10" fill="black"/>
  <rect x="150" y="210" width="10" height="10" fill="black"/>
  <rect x="170" y="210" width="10" height="10" fill="black"/>
  <rect x="190" y="210" width="10" height="10" fill="black"/>
  <rect x="210" y="210" width="10" height="10" fill="black"/>
  <rect x="230" y="210" width="10" height="10" fill="black"/>
  <rect x="40" y="220" width="10" height="10" fill="black"/>
  <rect x="60" y="220" width="10" height="10" fill="black"/>
  <rect x="70" y="220" width="10" height="10" fill="black"/>
  <rect x="80" y="220" width="10" height="10" fill="black"/>
  <rect x="100" y="220" width="10" height="10" fill="black"/>
  <rect x="140" y="220" width="10" height="10" fill="black"/>
  <rect x="160" y="220" width="10" height="10" fill="black"/>
  <rect x="180" y="220" width="10" height="10" fill="black"/>
  <rect x="200" y="220" width="10" height="10" fill="black"/>
  <rect x="220" y="220" width="10" height="10" fill="black"/>
  <rect x="240" y="220" width="10" height="10" fill="black"/>
  <rect x="40" y="230" width="10" height="10" fill="black"/>
  <rect x="100" y="230" width="10" height="10" fill="black"/>
  <rect x="120" y="230" width="10" height="10" fill="black"/>
  <rect x="140" y="230" width="10" height="10" fill="black"/>
  <rect x="150" y="230" width="10" height="10" fill="black"/>
  <rect x="170" y="230" width="10" height="10" fill="black"/>
  <rect x="190" y="230" width="10" height="10" fill="black"/>
  <rect x="210" y="230" width="10" height="10" fill="black"/>
  <rect x="230" y="230" width="10" height="10" fill="black"/>
  <rect x="40" y="240" width="10" height="10" fill="black"/>
  <rect x="50" y="240" width="10" height="10" fill="black"/>
  <rect x="60" y="240" width="10" height="10" fill="black"/>
  <rect x="70" y="240" width="10" height="10" fill="black"/>
  <rect x="80" y="240" width="10" height="10" fill="black"/>
  <rect x="90" y="240" width="10" height="10" fill="black"/>
  <rect x="100" y="240" width="10" height="10" fill="black"/>
  <rect x="160" y="240" width="10" height="10" fill="black"/>
  <rect x="180" y="240" width="10" height="10" fill="black"/>
  <rect x="200" y="240" width="10" height="10" fill="black"/>
  <rect x="220" y="240" width="10" height="10" fill="black"/>
  <rect x="240" y="240" width="10" height="10" fill="black"/>
</svg>